<svg xmlns="http://www.w3.org/2000/svg" viewBox="0 0 800 500" fill="none">
  <rect width="800" height="500" fill="#f5f4f0"/>
  <ellipse cx="400" cy="400" rx="220" ry="22" fill="#e8e6e1"/>
  <!-- Isometric cube -->
  <path d="M280 180 L400 120 L520 180 L520 320 L400 380 L280 320 Z" fill="#d4c9a8" stroke="#8b6914" stroke-width="1.5"/>
  <path d="M400 120 L400 260 L280 320 L280 180 Z" fill="#c4b998"/>
  <path d="M400 120 L400 260 L520 320 L520 180 Z" fill="#e0d5b5"/>
  <!-- Grass top -->
  <path d="M280 180 L400 120 L520 180 L400 240 Z" fill="#4a8c3f" opacity="0.7"/>
  <!-- Grass texture lines -->
  <line x1="340" y1="150" x2="345" y2="140" stroke="#2d5a27" stroke-width="1" opacity="0.5"/>
  <line x1="400" y1="170" x2="405" y2="158" stroke="#2d5a27" stroke-width="1" opacity="0.5"/>
  <line x1="460" y1="155" x2="463" y2="143" stroke="#2d5a27" stroke-width="1" opacity="0.5"/>
  <line x1="370" y1="160" x2="373" y2="148" stroke="#2d5a27" stroke-width="1" opacity="0.5"/>
  <line x1="430" y1="165" x2="434" y2="152" stroke="#2d5a27" stroke-width="1" opacity="0.5"/>
  <text x="400" y="475" font-family="Inter,sans-serif" font-size="11" fill="#999" text-anchor="middle" letter-spacing="2">AXONOMETRIC — PLACEHOLDER</text>
</svg>
