<svg xmlns="http://www.w3.org/2000/svg" viewBox="0 0 800 500" fill="none">
  <rect width="800" height="500" fill="#f5f4f0"/>
  <ellipse cx="400" cy="400" rx="280" ry="20" fill="#e8e6e1"/>
  <!-- Wavy bench form -->
  <path d="M120 300 C180 200, 280 350, 400 250 C520 150, 620 300, 680 280 L680 350 C620 370, 520 220, 400 320 C280 420, 180 270, 120 370 Z" fill="#d4c9a8" stroke="#8b6914" stroke-width="1.5"/>
  <!-- Lamination lines -->
  <path d="M140 310 C200 210, 290 350, 400 260" fill="none" stroke="#c4b998" stroke-width="1"/>
  <path d="M160 320 C220 220, 300 350, 400 270" fill="none" stroke="#c4b998" stroke-width="1"/>
  <path d="M400 260 C510 165, 610 300, 660 290" fill="none" stroke="#c4b998" stroke-width="1"/>
  <path d="M400 270 C510 175, 610 310, 660 300" fill="none" stroke="#c4b998" stroke-width="1"/>
  <!-- Legs -->
  <rect x="180" y="360" width="8" height="30" fill="#8b6914" rx="2"/>
  <rect x="610" y="350" width="8" height="40" fill="#8b6914" rx="2"/>
  <text x="400" y="475" font-family="Inter,sans-serif" font-size="11" fill="#999" text-anchor="middle" letter-spacing="2">AXONOMETRIC — PLACEHOLDER</text>
</svg>
